PathFileType	4	(X/Y/Z)	D:\TRACE\v60_Jaco2_6-2-23\JustBodyDRS_Motion3_8-platform.trc
DataRate	CameraRate	NumFrames	NumMarkers	Units	OrigDataRate	OrigDataStartFrame	OrigNumFrames
100.00	100.00	      36	5	mm	100.00	876	      7000
Frame#	Time	Left_Front			Right_Front			Left_Aft			Right_Aft			Post			
		X1	Y1	Z1	X2	Y2	Z2	X3	Y3	Z3	X4	Y4	Z4	X5	Y5	Z5	

876	8.750	-770.05737	-15.73175	-656.21387	800.34741	-17.41682	-633.69745	-701.62964	28.52310	476.61124	713.51349	29.64018	582.20935	26.04415	1268.41895	-1018.88452	
877	8.760	-770.33624	-15.33819	-656.51904	800.43585	-17.32584	-633.63220	-701.62244	28.43009	476.63449	713.52081	29.47931	582.20709	26.03288	1268.81372	-1018.52850	
878	8.770	-770.21838	-15.27321	-656.42560	800.67535	-17.31466	-633.99805	-701.50049	28.33285	476.74475	713.52625	29.29284	582.25690	26.04892	1269.02747	-1018.13739	
879	8.780	-770.12097	-15.41552	-656.57056	800.77020	-16.76880	-633.57721	-701.27332	28.24900	476.80725	713.63379	29.09494	582.32764	26.16653	1269.19775	-1017.81177	
880	8.790	-769.87213	-15.24025	-656.51483	800.98419	-16.63981	-633.53369	-701.15961	28.10715	476.72540	713.65979	28.74506	582.52460	26.18004	1269.25464	-1017.00073	
881	8.800	-769.67328	-15.09510	-656.46301	801.17743	-16.64798	-633.53589	-700.99011	27.89336	476.71338	714.03595	28.74706	582.59467	26.89845	1269.72339	-1017.05255	
882	8.810	-769.62994	-14.89419	-656.39557	801.26154	-16.45455	-633.45026	-700.88995	27.77247	476.78732	714.11938	28.73906	582.63257	27.04429	1269.97083	-1016.67932	
883	8.820	-769.57025	-14.78618	-656.32074	801.39142	-16.19387	-633.34888	-700.73102	27.71946	476.80573	714.08716	28.62192	582.68878	27.00748	1270.17554	-1016.40308	
884	8.830	-769.51178	-14.70733	-656.23657	801.42841	-16.03911	-633.30597	-700.68335	27.61599	476.86148	714.08740	28.49261	582.66370	27.01633	1270.32300	-1016.20642	
885	8.840	-769.49756	-14.50018	-656.18463	801.51868	-15.99779	-633.28772	-700.58722	27.41331	476.93930	714.42236	28.30946	582.57922	27.17068	1270.44922	-1016.02765	
886	8.850	-769.35608	-14.24823	-656.18243	801.64600	-15.90825	-633.25079	-700.53387	27.38005	476.94382	714.62018	28.29035	582.65570	27.10802	1270.63318	-1015.87970	
887	8.860	-769.12726	-14.10823	-656.06238	801.80237	-15.70261	-633.28430	-700.31140	27.23045	477.06204	714.84521	28.28419	582.73975	27.24973	1270.80054	-1015.61035	
888	8.870	-768.73737	-14.08083	-655.93396	801.89594	-15.60276	-633.29443	-700.13672	27.19616	477.10632	715.00781	28.19747	582.81689	27.46958	1271.01697	-1015.32117	
889	8.880	-768.61914	-13.97556	-655.58875	802.11340	-15.54172	-633.25549	-699.89355	27.02489	477.20261	715.19336	28.09726	582.82520	27.74107	1271.31860	-1014.92102	
890	8.890	-768.49280	-13.93053	-655.63055	802.19946	-15.46079	-633.27112	-699.70630	26.98285	477.20422	715.33539	28.00871	582.82916	27.84462	1271.57666	-1014.53564	
891	8.900	-768.16833	-14.06186	-655.77612	802.41656	-15.33490	-633.28149	-699.50317	26.89875	477.21957	715.73346	28.06864	582.78644	28.19992	1271.77661	-1014.27893	
892	8.910	-767.77905	-13.98015	-655.88550	802.68323	-15.42439	-633.61768	-699.40485	26.92633	477.23395	715.79468	27.99904	582.77551	28.08105	1271.78687	-1013.90094	
893	8.920	-767.53491	-14.07816	-655.84088	802.78168	-15.17811	-633.23273	-699.20544	26.90020	477.24011	715.97382	27.98653	582.78815	28.19670	1271.90735	-1013.85474	
894	8.930	-767.43103	-13.97850	-655.86969	803.04169	-15.04238	-633.06897	-698.98102	26.82205	477.26898	716.07837	27.90852	582.79517	28.49356	1272.22424	-1013.92786	
895	8.940	-767.21686	-13.92726	-655.85107	803.18317	-14.95453	-633.04840	-698.74866	26.73018	477.31876	716.24554	27.72852	582.87390	28.66675	1272.29443	-1013.81433	
896	8.950	-767.01288	-13.77213	-655.84155	803.31671	-14.85591	-633.07782	-698.61707	26.77882	477.31598	716.43427	27.61206	582.92407	28.82463	1272.32642	-1013.67834	
897	8.960	-766.82513	-13.61235	-655.73059	803.68073	-14.74118	-632.93646	-698.35651	26.70476	477.30844	716.89813	27.64746	583.03949	29.20136	1272.35925	-1013.57800	
898	8.970	-766.61859	-13.57998	-655.61096	803.90802	-14.71500	-633.01831	-698.11157	26.59192	477.37930	717.05011	27.58433	583.05292	29.42461	1272.39685	-1013.45483	
899	8.980	-766.47516	-13.47638	-655.61841	804.19751	-14.63515	-632.98352	-697.87268	26.54413	477.43311	717.92200	27.76600	583.11786	29.51199	1272.29187	-1013.11676	
900	8.990	-765.86279	-13.37512	-655.09363	804.35608	-14.65596	-633.01837	-697.63025	26.67667	477.49234	717.38959	27.34629	582.99249	29.87289	1272.44897	-1012.82690	
901	9.000	-766.12390	-13.17677	-655.77148	804.60809	-14.60434	-632.97534	-697.36334	26.66429	477.55347	717.59039	27.35641	582.96411	30.05336	1272.57568	-1012.74396	
902	9.010	-765.89130	-13.62694	-656.28247	804.91144	-14.53006	-633.01111	-697.15210	26.66423	477.59613	717.88257	27.40773	582.92926	30.19433	1272.65625	-1012.66406	
903	9.020	-765.71564	-13.56001	-656.08142	805.16296	-14.45634	-633.07886	-696.89697	26.60954	477.65033	718.10602	27.50568	582.91235	30.30365	1272.78101	-1012.54895	
904	9.030	-765.55298	-13.33528	-655.79816	805.30823	-14.50020	-633.08856	-696.61414	26.51432	477.70364	718.11340	27.32232	583.27808	30.71183	1272.97253	-1012.76343	
905	9.040	-765.29810	-13.21919	-655.65619	805.58185	-14.49818	-633.01788	-696.44287	26.45284	477.67023	718.36731	27.26995	583.16083	30.95684	1272.97095	-1012.70721	
906	9.050	-765.07898	-13.13171	-655.44476	805.75348	-14.45370	-633.01373	-696.22522	26.35757	477.59796	718.77991	27.30966	583.06836	31.21951	1272.98071	-1012.70490	
907	9.060	-764.55865	-13.24666	-655.68420	806.04724	-14.41953	-632.98590	-695.97577	26.27720	477.54117	719.13257	27.27853	583.09271	31.51163	1273.01208	-1012.70239	
908	9.070	-764.19788	-13.19973	-655.53619	806.38831	-14.40829	-632.94501	-695.61786	26.27090	477.52368	719.47351	27.21754	583.04059	31.73903	1273.04883	-1012.72357	
909	9.080	-763.76575	-13.13772	-655.51843	806.69501	-14.37764	-632.84503	-695.37555	26.34694	477.47562	719.90289	27.18905	583.13171	32.11084	1273.08301	-1012.84833	
910	9.090	-763.59204	-13.23180	-655.49512	806.94836	-14.36714	-632.86890	-695.07520	26.39926	477.49860	719.86426	27.16102	583.11560	32.48418	1273.10925	-1012.86877	
911	9.100	-763.32941	-13.35017	-655.48749	807.22565	-14.60086	-632.85431	-694.89233	26.41607	477.47522	720.12274	27.16624	582.99347	32.66872	1273.16980	-1012.81818	
